<?xml version="1.0" encoding="iso-8859-1"?>
<!-- Generator: Adobe Illustrator 19.0.0, SVG Export Plug-In . SVG Version: 6.00 Build 0)  -->
<svg version="1.1" id="Capa_1" xmlns="http://www.w3.org/2000/svg" xmlns:xlink="http://www.w3.org/1999/xlink" x="0px" y="0px"
	 viewBox="193 243 221.68 208" style="enable-background:new 193 243 221.68 208;" xml:space="preserve">
<g>
	<path style="fill:#FFFFFF;" d="M361.649,282.96c0,0.103,0,0.206,0,0.309c2.36,0,4.719-0.01,7.079,0.002
		c10.159,0.049,20.318,0.102,30.477,0.158c0.772,0.004,1.5,0.02,1.982-0.787c3.151-5.286,6.337-10.552,9.478-15.844
		c0.663-1.117,0.103-2.038-1.221-2.155c-0.916-0.081-1.833-0.149-2.751-0.207c-10.454-0.671-20.909-1.33-31.363-2.011
		c-12.887-0.839-25.773-1.704-38.66-2.543c-11.691-0.761-23.383-1.497-35.073-2.253c-2.058-0.133-2.124-0.11-2.883,1.838
		c-10.475,26.902-20.951,53.804-31.426,80.706c-13.924,35.758-27.852,71.514-41.742,107.285c-0.237,0.612-0.262,1.566,0.062,2.076
		c0.528,0.832,1.416,0.363,2.157,0.027c3.092-1.401,6.187-2.797,9.281-4.193c17.581-7.938,35.161-15.878,52.747-23.806
		c0.804-0.362,1.406-0.782,1.623-1.735c1.653-7.241,3.334-14.476,5.046-21.704c0.192-0.81-0.053-1.202-0.7-1.642
		c-3.997-2.724-7.966-5.489-11.937-8.252c-1.971-1.372-2.681-3.275-2.009-5.279c0.67-1.997,2.377-3.095,4.778-3.043
		c4.278,0.093,8.557,0.176,12.834,0.324c0.838,0.029,1.182-0.18,1.371-1.023c1.803-8.027,3.653-16.042,5.482-24.063
		c5.391-23.633,10.785-47.265,16.145-70.905c0.232-1.022,0.639-1.306,1.667-1.302C336.612,282.973,349.131,282.96,361.649,282.96z
		 M338.747,400.813c0.432-0.319,0.811-0.605,1.196-0.882c6.688-4.806,13.377-9.611,20.066-14.417
		c0.292-0.21,0.614-0.392,0.864-0.645c0.528-0.534,0.354-0.938-0.326-1.112c-0.301-0.077-0.637-0.026-0.956-0.023
		c-8.799,0.061-17.599,0.104-26.397,0.209c-0.981,0.012-1.376-0.302-1.689-1.203c-2.853-8.224-5.75-16.432-8.662-24.635
		c-0.183-0.515-0.602-0.947-0.911-1.417c-0.301,0.51-0.735,0.985-0.884,1.537c-2.242,8.287-4.468,16.579-6.635,24.886
		c-0.267,1.022-0.685,1.289-1.705,1.26c-8.556-0.241-17.113-0.424-25.669-0.623c-0.32-0.007-0.651-0.056-0.957,0.01
		c-0.697,0.149-0.873,0.547-0.355,1.09c0.244,0.256,0.572,0.434,0.867,0.639c7.36,5.101,14.708,10.22,22.099,15.275
		c0.904,0.618,1.019,1.158,0.72,2.139c-2.469,8.097-4.894,16.207-7.303,24.322c-0.13,0.438,0.002,0.955,0.012,1.435
		c0.448-0.165,0.969-0.235,1.334-0.51c4.815-3.642,9.608-7.314,14.408-10.978c2.376-1.814,4.755-3.625,7.137-5.44
		c0.406,0.283,0.736,0.504,1.056,0.738c7.031,5.151,14.061,10.304,21.091,15.456c0.322,0.236,0.632,0.499,0.981,0.686
		c0.183,0.098,0.534,0.157,0.642,0.056c0.169-0.159,0.277-0.473,0.263-0.713c-0.019-0.307-0.174-0.61-0.288-0.908
		c-1.776-4.665-3.556-9.328-5.334-13.992C341.863,408.992,340.316,404.93,338.747,400.813z"/>
	<path d="M195.92,246.643c1.815,0.228,3.627,0.498,5.447,0.678c14.159,1.402,28.321,2.783,42.481,4.179
		c14.518,1.432,29.035,2.874,43.552,4.313c0.597,0.059,1.191,0.146,1.788,0.194c1.814,0.145,2.271,0.851,1.571,2.506
		c-2.457,5.811-4.923,11.618-7.387,17.426c-0.967,2.279-1.965,4.545-2.888,6.842c-0.385,0.958-0.977,1.319-2.005,1.312
		c-21.395-0.153-42.79-0.288-64.186-0.394c-1.136-0.006-1.717-0.485-2.218-1.432c-5.954-11.265-11.938-22.515-17.917-33.768
		c-0.036-0.068-0.104-0.118-0.158-0.176c0-0.56,0-1.12,0-1.68C194.64,246.643,195.28,246.643,195.92,246.643z"/>
	<path d="M361.649,282.96c-12.519,0-25.037,0.013-37.556-0.024c-1.028-0.003-1.436,0.28-1.667,1.302
		c-5.359,23.64-10.754,47.272-16.145,70.905c-1.83,8.02-3.68,16.036-5.482,24.063c-0.189,0.843-0.534,1.052-1.371,1.023
		c-4.277-0.148-8.555-0.231-12.834-0.324c-2.402-0.052-4.108,1.047-4.778,3.043c-0.672,2.005,0.038,3.907,2.009,5.279
		c3.97,2.763,7.94,5.527,11.937,8.252c0.647,0.441,0.892,0.833,0.7,1.642c-1.712,7.228-3.393,14.463-5.046,21.704
		c-0.217,0.953-0.819,1.372-1.623,1.735c-17.586,7.928-35.166,15.868-52.747,23.806c-3.094,1.397-6.189,2.793-9.281,4.193
		c-0.741,0.336-1.629,0.805-2.157-0.027c-0.324-0.51-0.3-1.465-0.062-2.076c13.889-35.771,27.817-71.527,41.742-107.285
		c10.476-26.902,20.951-53.804,31.426-80.706c0.759-1.948,0.825-1.972,2.883-1.838c11.691,0.756,23.383,1.492,35.073,2.253
		c12.887,0.838,25.773,1.703,38.66,2.543c10.454,0.681,20.909,1.34,31.363,2.011c0.918,0.059,1.835,0.126,2.751,0.207
		c1.323,0.117,1.884,1.038,1.221,2.155c-3.142,5.292-6.327,10.557-9.478,15.844c-0.481,0.807-1.209,0.792-1.982,0.787
		c-10.159-0.056-20.318-0.11-30.477-0.158c-2.36-0.011-4.719-0.002-7.079-0.002C361.649,283.166,361.649,283.063,361.649,282.96z"/>
	<path d="M338.747,400.813c1.569,4.117,3.116,8.179,4.664,12.24c1.778,4.664,3.558,9.327,5.334,13.992
		c0.113,0.298,0.269,0.6,0.288,0.908c0.014,0.239-0.094,0.554-0.263,0.713c-0.108,0.101-0.459,0.042-0.642-0.056
		c-0.349-0.187-0.659-0.45-0.981-0.686c-7.031-5.152-14.06-10.305-21.091-15.456c-0.32-0.234-0.65-0.455-1.056-0.738
		c-2.382,1.815-4.76,3.626-7.137,5.44c-4.8,3.663-9.592,7.335-14.408,10.978c-0.365,0.276-0.886,0.345-1.334,0.51
		c-0.01-0.48-0.142-0.996-0.012-1.435c2.409-8.115,4.834-16.225,7.303-24.322c0.299-0.98,0.184-1.52-0.72-2.139
		c-7.391-5.055-14.739-10.174-22.099-15.275c-0.296-0.205-0.623-0.383-0.867-0.639c-0.518-0.543-0.342-0.94,0.355-1.09
		c0.306-0.066,0.637-0.017,0.957-0.01c8.557,0.199,17.114,0.382,25.669,0.623c1.02,0.029,1.439-0.238,1.705-1.26
		c2.166-8.307,4.392-16.599,6.635-24.886c0.149-0.552,0.583-1.026,0.884-1.537c0.309,0.471,0.728,0.902,0.911,1.417
		c2.912,8.203,5.808,16.412,8.662,24.635c0.313,0.901,0.708,1.214,1.689,1.203c8.799-0.105,17.598-0.149,26.397-0.209
		c0.32-0.002,0.655-0.054,0.956,0.023c0.681,0.174,0.854,0.578,0.326,1.112c-0.25,0.253-0.572,0.435-0.864,0.645
		c-6.689,4.806-13.378,9.611-20.066,14.417C339.558,400.207,339.179,400.493,338.747,400.813z"/>
</g>
</svg>
